<svg xmlns="http://www.w3.org/2000/svg" viewBox="0 0 600 600"><rect x="-0.5" y="0.41" width="600" height="600" style="fill:#408eff;stroke:#000;stroke-miterlimit:10"/><ellipse cx="300" cy="257.41" rx="138.88" ry="137.5" style="fill:none;stroke:#fff;stroke-miterlimit:10;stroke-width:30px"/><ellipse cx="300" cy="430" rx="128.24" ry="129.5" style="fill:#408eff"/><ellipse cx="440" cy="180" rx="128.24" ry="129.5" style="fill:#408eff"/><ellipse cx="160" cy="180" rx="128.24" ry="129.5" style="fill:#408eff"/><path d="M382.21,478.36c-15.85-4.33-28-10.28-39.28-15.08a14.51,14.51,0,0,1-4.4,9.37c-9.12,9.72-23.08,21.47-38.33,21.47s-29.78-11.9-38.74-21.49a14.19,14.19,0,0,1-4.29-9.78c-11.3,5-23.48,10.61-39.38,14.95,0,0-17.45,10.69-19.14,50.11h202.7C400.23,487.93,382.21,478.36,382.21,478.36Z" style="fill:#fff"/><path d="M345.05,361.8c0-20.27-18-36.6-39.41-36.6H294.37c-20.27,0-39.41,16.33-39.41,36.6V390c0,11.87,9.17,26.53,19.71,36.89-.57,30.41-9.57,33.49-5.07,38,14.08,15.2,45.61,16.32,60.81,0,4.49-4.49-3.32-7.32-5-38,10.3-10.34,19.35-25.13,19.68-36.89Z" style="fill:#fff"/><path d="M498.94,201.5a29.09,29.09,0,0,1,15.53-25.74,87.57,87.57,0,0,0-6-14.64,29.09,29.09,0,0,1-37-37,86.78,86.78,0,0,0-14.64-6,29.1,29.1,0,0,1-51.49,0,87.12,87.12,0,0,0-14.64,6,29.09,29.09,0,0,1-37,37,86.39,86.39,0,0,0-6,14.64,29.1,29.1,0,0,1,0,51.48,86.73,86.73,0,0,0,6,14.64,29.41,29.41,0,0,1,9.5-1.59,29.1,29.1,0,0,1,27.49,38.59,86.73,86.73,0,0,0,14.64,6,29.1,29.1,0,0,1,51.49,0,87.92,87.92,0,0,0,14.64-6,29.1,29.1,0,0,1,37-37,86.39,86.39,0,0,0,6-14.64A29.06,29.06,0,0,1,498.94,201.5Zm-67.87,29.1a29.09,29.09,0,1,1,29.08-29.09A29.12,29.12,0,0,1,431.07,230.6Z" style="fill:#fff"/><path d="M183,101.91H102.32A3.32,3.32,0,0,0,99,105.23V262.59a3.32,3.32,0,0,0,3.32,3.32H215.68a3.32,3.32,0,0,0,3.32-3.32V129.91Zm14,140H121v-9h76Zm0-23H121v-9h76Zm0-23H121v-9h76Z" style="fill:#fff"/></svg>